# xmcd
#
# Track frame offsets:
#	150
#	15998
#	31846
#	55841
#
# Disc length: 1197 seconds
#
# Revision: 1
# Processed by: cddbd v1.5.2PL0 Copyright (c) Steve Scherf et al.
# Submitted via: audiograbber 1.83.01
#
DISCID=2104ab04
DTITLE=Soccx - From dusk Till Dawn
DYEAR=2006
DGENRE=Dance
TTITLE0=From dusk Till Dawn (Radio Edit)
TTITLE1=From dusk Till Dawn (Instromental)
TTITLE2=The Battle (Doa Edit)
TTITLE3=Daten-CD
EXTD=
EXTT0=
EXTT1=
EXTT2=
EXTT3=
PLAYORDER=
